<mxfile host="app.diagrams.net" modified="2021-05-08T06:33:10.103Z" agent="5.0 (Windows NT 10.0; Win64; x64) AppleWebKit/537.36 (KHTML, like Gecko) Chrome/90.0.4430.93 Safari/537.36" etag="9wp34ftlQg8enRRKOUHX" version="14.6.11" type="github">
  <diagram id="C5RBs43oDa-KdzZeNtuy" name="Page-1">
    <mxGraphModel dx="1038" dy="556" grid="1" gridSize="10" guides="1" tooltips="1" connect="1" arrows="1" fold="1" page="1" pageScale="1" pageWidth="413" pageHeight="583" math="0" shadow="0">
      <root>
        <mxCell id="WIyWlLk6GJQsqaUBKTNV-0" />
        <mxCell id="WIyWlLk6GJQsqaUBKTNV-1" parent="WIyWlLk6GJQsqaUBKTNV-0" />
        <mxCell id="AVQmENuiJ8dfQVGZ_OfL-3" value="" style="edgeStyle=orthogonalEdgeStyle;rounded=0;orthogonalLoop=1;jettySize=auto;html=1;strokeWidth=1;" edge="1" parent="WIyWlLk6GJQsqaUBKTNV-1" source="WIyWlLk6GJQsqaUBKTNV-3" target="AVQmENuiJ8dfQVGZ_OfL-2">
          <mxGeometry relative="1" as="geometry" />
        </mxCell>
        <mxCell id="WIyWlLk6GJQsqaUBKTNV-3" value="开始" style="rounded=1;whiteSpace=wrap;html=1;fontSize=12;glass=0;strokeWidth=1;shadow=0;" parent="WIyWlLk6GJQsqaUBKTNV-1" vertex="1">
          <mxGeometry x="85" y="43" width="120" height="40" as="geometry" />
        </mxCell>
        <mxCell id="WIyWlLk6GJQsqaUBKTNV-11" value="结束" style="rounded=1;whiteSpace=wrap;html=1;fontSize=12;glass=0;strokeWidth=1;shadow=0;" parent="WIyWlLk6GJQsqaUBKTNV-1" vertex="1">
          <mxGeometry x="85" y="543" width="120" height="40" as="geometry" />
        </mxCell>
        <mxCell id="AVQmENuiJ8dfQVGZ_OfL-4" value="" style="edgeStyle=orthogonalEdgeStyle;rounded=0;orthogonalLoop=1;jettySize=auto;html=1;strokeWidth=1;" edge="1" parent="WIyWlLk6GJQsqaUBKTNV-1" source="AVQmENuiJ8dfQVGZ_OfL-2">
          <mxGeometry relative="1" as="geometry">
            <mxPoint x="145" y="213" as="targetPoint" />
          </mxGeometry>
        </mxCell>
        <mxCell id="AVQmENuiJ8dfQVGZ_OfL-2" value="数据划分" style="rounded=1;whiteSpace=wrap;html=1;" vertex="1" parent="WIyWlLk6GJQsqaUBKTNV-1">
          <mxGeometry x="85" y="123" width="120" height="60" as="geometry" />
        </mxCell>
        <mxCell id="AVQmENuiJ8dfQVGZ_OfL-6" value="参与节点平行训练数据" style="rounded=1;whiteSpace=wrap;html=1;" vertex="1" parent="WIyWlLk6GJQsqaUBKTNV-1">
          <mxGeometry x="270" y="208" width="140" height="60" as="geometry" />
        </mxCell>
        <mxCell id="AVQmENuiJ8dfQVGZ_OfL-20" value="" style="edgeStyle=orthogonalEdgeStyle;rounded=0;orthogonalLoop=1;jettySize=auto;html=1;strokeWidth=1;" edge="1" parent="WIyWlLk6GJQsqaUBKTNV-1" source="AVQmENuiJ8dfQVGZ_OfL-7" target="AVQmENuiJ8dfQVGZ_OfL-17">
          <mxGeometry relative="1" as="geometry" />
        </mxCell>
        <mxCell id="AVQmENuiJ8dfQVGZ_OfL-7" value="" style="verticalLabelPosition=bottom;verticalAlign=top;html=1;shape=mxgraph.flowchart.parallel_mode;pointerEvents=1" vertex="1" parent="WIyWlLk6GJQsqaUBKTNV-1">
          <mxGeometry x="97.5" y="213" width="95" height="40" as="geometry" />
        </mxCell>
        <mxCell id="AVQmENuiJ8dfQVGZ_OfL-11" value="" style="strokeWidth=2;html=1;shape=mxgraph.flowchart.annotation_2;align=left;labelPosition=right;pointerEvents=1;" vertex="1" parent="WIyWlLk6GJQsqaUBKTNV-1">
          <mxGeometry x="215" y="183" width="70" height="110" as="geometry" />
        </mxCell>
        <mxCell id="AVQmENuiJ8dfQVGZ_OfL-15" value="" style="edgeStyle=orthogonalEdgeStyle;rounded=0;orthogonalLoop=1;jettySize=auto;html=1;strokeWidth=1;" edge="1" parent="WIyWlLk6GJQsqaUBKTNV-1" source="AVQmENuiJ8dfQVGZ_OfL-13" target="WIyWlLk6GJQsqaUBKTNV-11">
          <mxGeometry relative="1" as="geometry" />
        </mxCell>
        <mxCell id="AVQmENuiJ8dfQVGZ_OfL-13" value="比对结果" style="rounded=1;whiteSpace=wrap;html=1;" vertex="1" parent="WIyWlLk6GJQsqaUBKTNV-1">
          <mxGeometry x="85" y="443" width="120" height="60" as="geometry" />
        </mxCell>
        <mxCell id="AVQmENuiJ8dfQVGZ_OfL-21" value="" style="edgeStyle=orthogonalEdgeStyle;rounded=0;orthogonalLoop=1;jettySize=auto;html=1;strokeWidth=1;" edge="1" parent="WIyWlLk6GJQsqaUBKTNV-1" source="AVQmENuiJ8dfQVGZ_OfL-17" target="AVQmENuiJ8dfQVGZ_OfL-13">
          <mxGeometry relative="1" as="geometry" />
        </mxCell>
        <mxCell id="AVQmENuiJ8dfQVGZ_OfL-17" value="达到目标精确度" style="strokeWidth=1;html=1;shape=mxgraph.flowchart.decision;whiteSpace=wrap;" vertex="1" parent="WIyWlLk6GJQsqaUBKTNV-1">
          <mxGeometry x="90" y="313" width="110" height="90" as="geometry" />
        </mxCell>
        <mxCell id="AVQmENuiJ8dfQVGZ_OfL-19" value="" style="edgeStyle=orthogonalEdgeStyle;rounded=0;orthogonalLoop=1;jettySize=auto;html=1;strokeWidth=1;exitX=0;exitY=0.5;exitDx=0;exitDy=0;exitPerimeter=0;entryX=0;entryY=0.5;entryDx=0;entryDy=0;entryPerimeter=0;" edge="1" parent="WIyWlLk6GJQsqaUBKTNV-1" source="AVQmENuiJ8dfQVGZ_OfL-17" target="AVQmENuiJ8dfQVGZ_OfL-7">
          <mxGeometry relative="1" as="geometry">
            <mxPoint x="25" y="358" as="sourcePoint" />
            <mxPoint x="25" y="173" as="targetPoint" />
            <Array as="points">
              <mxPoint x="25" y="358" />
              <mxPoint x="25" y="233" />
            </Array>
          </mxGeometry>
        </mxCell>
        <mxCell id="AVQmENuiJ8dfQVGZ_OfL-22" value="是" style="text;html=1;align=center;verticalAlign=middle;resizable=0;points=[];autosize=1;strokeColor=none;" vertex="1" parent="WIyWlLk6GJQsqaUBKTNV-1">
          <mxGeometry x="140" y="413" width="30" height="20" as="geometry" />
        </mxCell>
        <mxCell id="AVQmENuiJ8dfQVGZ_OfL-23" value="否" style="text;html=1;align=center;verticalAlign=middle;resizable=0;points=[];autosize=1;strokeColor=none;" vertex="1" parent="WIyWlLk6GJQsqaUBKTNV-1">
          <mxGeometry y="283" width="30" height="20" as="geometry" />
        </mxCell>
      </root>
    </mxGraphModel>
  </diagram>
</mxfile>
